<?xml version="1.0" encoding="UTF-8" standalone="no"?>
<!-- Created with Inkscape (http://www.inkscape.org/) -->

<svg
   xmlns:dc="http://purl.org/dc/elements/1.1/"
   xmlns:cc="http://creativecommons.org/ns#"
   xmlns:rdf="http://www.w3.org/1999/02/22-rdf-syntax-ns#"
   xmlns:svg="http://www.w3.org/2000/svg"
   xmlns="http://www.w3.org/2000/svg"
   xmlns:sodipodi="http://sodipodi.sourceforge.net/DTD/sodipodi-0.dtd"
   xmlns:inkscape="http://www.inkscape.org/namespaces/inkscape"
   width="197.82784mm"
   height="20.635857mm"
   viewBox="0 0 197.82784 20.635857"
   version="1.1"
   id="svg2398"
   inkscape:version="0.92.5 (2060ec1f9f, 2020-04-08)"
   sodipodi:docname="logo.svg">
  <defs
     id="defs2392" />
  <sodipodi:namedview
     id="base"
     pagecolor="#ffffff"
     bordercolor="#666666"
     borderopacity="1.0"
     inkscape:pageopacity="0.0"
     inkscape:pageshadow="2"
     inkscape:zoom="1.1730469"
     inkscape:cx="229.77506"
     inkscape:cy="-143.8221"
     inkscape:document-units="mm"
     inkscape:current-layer="layer1"
     showgrid="false"
     inkscape:window-width="1848"
     inkscape:window-height="1016"
     inkscape:window-x="72"
     inkscape:window-y="27"
     inkscape:window-maximized="1"
     fit-margin-top="0"
     fit-margin-left="0"
     fit-margin-right="0"
     fit-margin-bottom="0" />
  <metadata
     id="metadata2395">
    <rdf:RDF>
      <cc:Work
         rdf:about="">
        <dc:format>image/svg+xml</dc:format>
        <dc:type
           rdf:resource="http://purl.org/dc/dcmitype/StillImage" />
        <dc:title></dc:title>
      </cc:Work>
    </rdf:RDF>
  </metadata>
  <g
     inkscape:label="Layer 1"
     inkscape:groupmode="layer"
     id="layer1"
     transform="translate(-6.982848,-6.0052734)">
    <path
       inkscape:connector-curvature="0"
       id="path1725"
       style="fill:#000000;fill-opacity:1;fill-rule:nonzero;stroke:none;stroke-width:0.06418306"
       d="m 132.86649,10.567502 0.21566,0.150188 c -0.20539,0.290751 -0.46854,0.52181 -0.78689,0.689327 -0.31642,0.168164 -0.6598,0.250956 -1.02565,0.250956 -0.30615,0 -0.5969,-0.06033 -0.87481,-0.182922 -0.27856,-0.123226 -0.51667,-0.288182 -0.71757,-0.49421 -0.20025,-0.207953 -0.3607,-0.456342 -0.4788,-0.744523 -0.12002,-0.2881818 -0.17779,-0.5892007 -0.17779,-0.904982 0,-0.3157794 0.0578,-0.6193659 0.17779,-0.9049805 0.1181,-0.2881819 0.27855,-0.5365703 0.4788,-0.7445232 0.2009,-0.208595 0.43901,-0.3735455 0.71757,-0.4942096 0.27791,-0.1225905 0.56866,-0.1854891 0.87481,-0.1854891 0.36585,0 0.70666,0.087932 1.02309,0.258016 0.31834,0.16816 0.58149,0.4011441 0.78945,0.6944606 l -0.21566,0.1630257 c -0.18292,-0.2554493 -0.4159,-0.4563422 -0.69446,-0.6039633 -0.27791,-0.1482629 -0.57893,-0.2233571 -0.90242,-0.2233571 -0.36134,0 -0.69445,0.093066 -1.00061,0.2759872 -0.30294,0.1829216 -0.54363,0.4338774 -0.71949,0.7496581 -0.17522,0.3132132 -0.26572,0.6565933 -0.26572,1.0301375 0,0.2785553 0.0526,0.5417061 0.15532,0.7952287 0.10525,0.25288 0.24582,0.471104 0.42361,0.654026 0.17586,0.185488 0.38638,0.331184 0.6322,0.441579 0.24839,0.107834 0.50384,0.163034 0.77469,0.163034 0.32348,0 0.6245,-0.07574 0.90242,-0.223358 0.27855,-0.150188 0.51153,-0.35365 0.69446,-0.609097 z" />
    <g
       transform="matrix(0.06071583,0,0,0.06765022,6.5638573,348.82956)"
       id="g1727">
      <path
         inkscape:connector-curvature="0"
         id="path1729"
         style="fill:none;stroke:#000000;stroke-width:5.67757988;stroke-linecap:butt;stroke-linejoin:round;stroke-miterlimit:4;stroke-dasharray:none;stroke-opacity:1"
         d="m 2080.23,-5000.16 3.55,2.22 c -3.39,4.3 -7.72,7.71 -12.97,10.19 -5.2,2.49 -10.85,3.71 -16.89,3.71 -5.04,0 -9.83,-0.89 -14.41,-2.7 -4.59,-1.83 -8.5,-4.26 -11.81,-7.31 -3.31,-3.07 -5.94,-6.75 -7.89,-11 -1.98,-4.27 -2.93,-8.71 -2.93,-13.38 0,-4.67 0.95,-9.16 2.93,-13.38 1.95,-4.26 4.58,-7.93 7.89,-11 3.31,-3.09 7.22,-5.53 11.81,-7.31 4.58,-1.81 9.37,-2.74 14.41,-2.74 6.04,0 11.65,1.3 16.85,3.81 5.24,2.49 9.58,5.93 13.01,10.27 l -3.55,2.41 c -3.02,-3.78 -6.86,-6.75 -11.44,-8.93 -4.59,-2.19 -9.54,-3.3 -14.87,-3.3 -5.95,0 -11.43,1.38 -16.47,4.08 -5,2.7 -8.97,6.41 -11.86,11.08 -2.88,4.63 -4.38,9.7 -4.38,15.23 0,4.11 0.88,8.01 2.57,11.75 1.73,3.74 4.05,6.97 6.98,9.67 2.88,2.74 6.36,4.9 10.4,6.53 4.09,1.59 8.3,2.41 12.76,2.41 5.33,0 10.28,-1.12 14.87,-3.31 4.58,-2.22 8.42,-5.22 11.44,-9 z" />
    </g>
    <path
       inkscape:connector-curvature="0"
       id="path1731"
       style="fill:#000000;fill-opacity:1;fill-rule:nonzero;stroke:none;stroke-width:0.06418306"
       d="m 141.5036,7.2023848 c 0.27856,-0.1225905 0.56931,-0.1829218 0.87482,-0.1829218 0.30616,0 0.5969,0.060332 0.87546,0.1829218 0.28048,0.1232309 0.5186,0.2862563 0.71949,0.4942094 0.20282,0.2079531 0.36328,0.4563416 0.48394,0.7445235 0.11746,0.2881819 0.17779,0.5892012 0.17779,0.9049806 0,0.3157813 -0.0603,0.6168002 -0.17779,0.9049817 -0.12066,0.286257 -0.28112,0.532078 -0.48394,0.740031 -0.20089,0.207953 -0.43901,0.373544 -0.71949,0.496135 -0.27856,0.123225 -0.5693,0.182922 -0.87546,0.182922 -0.30551,0 -0.59626,-0.05969 -0.87482,-0.182922 -0.27598,-0.122589 -0.51603,-0.288182 -0.71692,-0.496135 -0.20089,-0.207953 -0.35878,-0.453774 -0.47881,-0.740031 -0.11809,-0.2881815 -0.17778,-0.5892004 -0.17778,-0.9049817 0,-0.3157794 0.0597,-0.6167987 0.17778,-0.9049806 0.12003,-0.2881819 0.27792,-0.5365704 0.47881,-0.7445235 0.20089,-0.2079531 0.44094,-0.370978 0.71692,-0.4942094 z m -1.10779,2.1437135 c 0,0.2785553 0.0501,0.5417061 0.15275,0.7952287 0.10527,0.25288 0.24582,0.471104 0.42361,0.654026 0.17586,0.185488 0.38895,0.331184 0.63413,0.441579 0.24582,0.107834 0.50448,0.163034 0.77212,0.163034 0.27342,0 0.53208,-0.0552 0.77726,-0.163034 0.24582,-0.110398 0.45634,-0.256091 0.63477,-0.441579 0.17522,-0.182922 0.31578,-0.401146 0.42104,-0.654026 0.10525,-0.2535226 0.15788,-0.5166734 0.15788,-0.7952287 0,-0.3735442 -0.0879,-0.7169243 -0.26315,-1.0301375 -0.17778,-0.3157807 -0.41847,-0.5667365 -0.72719,-0.7496581 -0.30551,-0.1829217 -0.63927,-0.2759872 -1.00061,-0.2759872 -0.36071,0 -0.69447,0.093066 -0.99998,0.2759872 -0.30358,0.1829216 -0.5417,0.4338774 -0.71949,0.7496581 -0.17586,0.3132132 -0.26315,0.6565933 -0.26315,1.0301375 z" />
    <g
       transform="matrix(0.06071583,0,0,0.06765022,6.5638573,348.82956)"
       id="g1733">
      <path
         inkscape:connector-curvature="0"
         id="path1735"
         style="fill:none;stroke:#000000;stroke-width:5.67757988;stroke-linecap:butt;stroke-linejoin:round;stroke-miterlimit:4;stroke-dasharray:none;stroke-opacity:1"
         d="m 2222.49,-5049.9 c 4.58,-1.81 9.37,-2.71 14.41,-2.71 5.03,0 9.82,0.9 14.41,2.71 4.62,1.82 8.55,4.23 11.85,7.3 3.34,3.08 5.98,6.75 7.97,11.01 1.93,4.26 2.93,8.71 2.93,13.38 0,4.67 -1,9.11 -2.93,13.38 -1.99,4.22 -4.63,7.86 -7.97,10.93 -3.3,3.08 -7.23,5.52 -11.85,7.34 -4.59,1.82 -9.38,2.7 -14.41,2.7 -5.04,0 -9.83,-0.88 -14.41,-2.7 -4.55,-1.82 -8.51,-4.26 -11.82,-7.34 -3.3,-3.07 -5.91,-6.71 -7.88,-10.93 -1.95,-4.27 -2.93,-8.71 -2.93,-13.38 0,-4.67 0.98,-9.12 2.93,-13.38 1.97,-4.26 4.58,-7.93 7.88,-11.01 3.31,-3.07 7.27,-5.48 11.82,-7.3 z m -18.26,31.69 c 0,4.11 0.83,8.01 2.51,11.75 1.74,3.74 4.06,6.97 6.99,9.67 2.89,2.74 6.4,4.9 10.44,6.53 4.06,1.59 8.3,2.41 12.73,2.41 4.49,0 8.74,-0.82 12.79,-2.41 4.05,-1.63 7.52,-3.79 10.45,-6.53 2.89,-2.7 5.2,-5.93 6.93,-9.67 1.74,-3.74 2.61,-7.64 2.61,-11.75 0,-5.53 -1.45,-10.6 -4.34,-15.23 -2.93,-4.67 -6.89,-8.38 -11.98,-11.08 -5.03,-2.7 -10.52,-4.08 -16.46,-4.08 -5.95,0 -11.45,1.38 -16.48,4.08 -5,2.7 -8.92,6.41 -11.85,11.08 -2.9,4.63 -4.34,9.7 -4.34,15.23 z" />
    </g>
    <path
       inkscape:connector-curvature="0"
       id="path1737"
       style="fill:#000000;fill-opacity:1;fill-rule:nonzero;stroke:none;stroke-width:0.06418306"
       d="M 151.8159,11.625239 V 7.0021336 l 3.73802,4.0063074 v -3.95111 h 0.26572 v 4.620538 l -3.73546,-3.9986042 v 3.9459742 z" />
    <g
       transform="matrix(0.06071583,0,0,0.06765022,6.5638573,348.82956)"
       id="g1739">
      <path
         inkscape:connector-curvature="0"
         id="path1741"
         style="fill:none;stroke:#000000;stroke-width:5.67757988;stroke-linecap:butt;stroke-linejoin:round;stroke-miterlimit:4;stroke-dasharray:none;stroke-opacity:1"
         d="m 2392.32,-4984.52 v -68.34 l 61.56,59.22 v -58.41 h 4.39 v 68.31 l -61.53,-59.11 v 58.33 z" />
    </g>
    <path
       inkscape:connector-curvature="0"
       id="path1743"
       style="fill:#000000;fill-opacity:1;fill-rule:nonzero;stroke:none;stroke-width:0.06418306"
       d="m 165.93103,10.567502 0.21309,0.150188 c -0.20602,0.290751 -0.46661,0.52181 -0.78496,0.689327 -0.31835,0.168164 -0.65916,0.250956 -1.02564,0.250956 -0.30551,0 -0.59883,-0.06033 -0.87482,-0.182922 -0.27791,-0.123226 -0.5186,-0.288182 -0.71692,-0.49421 -0.20025,-0.207953 -0.36071,-0.456342 -0.48137,-0.744523 -0.1181,-0.2881818 -0.17779,-0.5892007 -0.17779,-0.904982 0,-0.3157794 0.0597,-0.6193659 0.17779,-0.9049805 0.12066,-0.2881819 0.28112,-0.5365703 0.48137,-0.7445232 0.19832,-0.208595 0.43901,-0.3735455 0.71692,-0.4942096 0.27599,-0.1225905 0.56931,-0.1854891 0.87482,-0.1854891 0.36392,0 0.70473,0.087932 1.02308,0.258016 0.31578,0.16816 0.57957,0.4011441 0.78752,0.6944606 l -0.21309,0.1630257 c -0.18549,-0.2554493 -0.41654,-0.4563422 -0.69702,-0.6039633 -0.27856,-0.1482629 -0.57958,-0.2233571 -0.90049,-0.2233571 -0.36328,0 -0.69446,0.093066 -0.99997,0.2759872 -0.30359,0.1829216 -0.54427,0.4338774 -0.72206,0.7496581 -0.17586,0.3132132 -0.26315,0.6565933 -0.26315,1.0301375 0,0.2785553 0.0501,0.5417061 0.15532,0.7952287 0.10527,0.25288 0.24582,0.471104 0.42104,0.654026 0.17842,0.185488 0.38895,0.331184 0.63413,0.441579 0.24582,0.107834 0.50448,0.163034 0.77469,0.163034 0.32091,0 0.62193,-0.07574 0.90049,-0.223358 0.28048,-0.150188 0.51153,-0.35365 0.69702,-0.609099 z" />
    <g
       transform="matrix(0.06071583,0,0,0.06765022,6.5638573,348.82956)"
       id="g1745">
      <path
         inkscape:connector-curvature="0"
         id="path1747"
         style="fill:none;stroke:#000000;stroke-width:5.67757988;stroke-linecap:butt;stroke-linejoin:round;stroke-miterlimit:4;stroke-dasharray:none;stroke-opacity:1"
         d="m 2624.8,-5000.16 3.51,2.22 c -3.38,4.3 -7.68,7.71 -12.92,10.19 -5.25,2.49 -10.86,3.71 -16.9,3.71 -5.03,0 -9.87,-0.89 -14.41,-2.7 -4.58,-1.83 -8.54,-4.26 -11.8,-7.31 -3.3,-3.07 -5.95,-6.75 -7.93,-11 -1.95,-4.27 -2.93,-8.71 -2.93,-13.38 0,-4.67 0.98,-9.16 2.93,-13.38 1.98,-4.26 4.63,-7.93 7.93,-11 3.26,-3.09 7.22,-5.53 11.8,-7.31 4.54,-1.81 9.38,-2.74 14.41,-2.74 6,0 11.61,1.3 16.85,3.81 5.21,2.49 9.55,5.93 12.97,10.27 l -3.51,2.41 c -3.05,-3.78 -6.86,-6.75 -11.48,-8.93 -4.58,-2.19 -9.53,-3.3 -14.83,-3.3 -5.98,0 -11.43,1.38 -16.47,4.08 -5,2.7 -8.96,6.41 -11.9,11.08 -2.88,4.63 -4.33,9.7 -4.33,15.23 0,4.11 0.83,8.01 2.56,11.75 1.74,3.74 4.05,6.97 6.94,9.67 2.93,2.74 6.4,4.9 10.45,6.53 4.04,1.59 8.29,2.41 12.75,2.41 5.3,0 10.25,-1.12 14.83,-3.31 4.62,-2.22 8.43,-5.22 11.48,-9 z" />
    </g>
    <path
       inkscape:connector-curvature="0"
       id="path1749"
       style="fill:#000000;fill-opacity:1;fill-rule:nonzero;stroke:none;stroke-width:0.06418306"
       d="M 173.32428,11.625239 V 7.057331 h 1.57698 c 0.31834,0 0.5892,0.1200216 0.81256,0.3581415 0.22079,0.2361936 0.33311,0.5243755 0.33311,0.8626203 0,0.2881819 -0.0873,0.544273 -0.26316,0.7676288 -0.17265,0.2227154 -0.3883,0.3607086 -0.64889,0.4159062 l 1.15337,2.1636112 h -0.30101 L 174.84413,9.4815244 H 173.59 V 11.625239 Z M 173.59,9.2081051 h 1.31896 c 0.23555,0 0.43901,-0.089858 0.60653,-0.2702098 0.17073,-0.1835642 0.25609,-0.4011449 0.25609,-0.6598025 0,-0.2605833 -0.0854,-0.4839402 -0.25609,-0.666862 -0.17009,-0.1854891 -0.37611,-0.2779127 -0.61423,-0.2779127 H 173.59 Z" />
    <g
       transform="matrix(0.06071583,0,0,0.06765022,6.5638573,348.82956)"
       id="g1751">
      <path
         inkscape:connector-curvature="0"
         id="path1753"
         style="fill:none;stroke:#000000;stroke-width:5.67757988;stroke-linecap:butt;stroke-linejoin:round;stroke-miterlimit:4;stroke-dasharray:none;stroke-opacity:1"
         d="m 2746.57,-4984.52 v -67.53 h 25.98 c 5.25,0 9.71,1.78 13.38,5.3 3.63,3.49 5.49,7.75 5.49,12.75 0,4.26 -1.45,8.04 -4.34,11.35 -2.85,3.29 -6.4,5.33 -10.69,6.14 l 18.99,31.99 h -4.96 l -18.82,-31.69 h -20.65 v 31.69 z m 4.38,-35.73 h 21.72 c 3.88,0 7.22,-1.33 9.99,-4 2.81,-2.71 4.22,-5.93 4.22,-9.75 0,-3.85 -1.41,-7.15 -4.22,-9.86 -2.81,-2.74 -6.19,-4.11 -10.11,-4.11 h -21.6 z" />
    </g>
    <path
       inkscape:connector-curvature="0"
       id="path1755"
       style="fill:#000000;fill-opacity:1;fill-rule:nonzero;stroke:none;stroke-width:0.06418306"
       d="m 185.62689,8.8345591 v 0.2759882 h -2.13087 v 2.2387057 h 2.30417 v 0.275986 h -2.57247 V 7.057331 h 2.58209 v 0.2759871 h -2.31379 v 1.501241 z" />
    <g
       transform="matrix(0.06071583,0,0,0.06765022,6.5638573,348.82956)"
       id="g1757">
      <path
         inkscape:connector-curvature="0"
         id="path1759"
         style="fill:none;stroke:#000000;stroke-width:5.67757988;stroke-linecap:butt;stroke-linejoin:round;stroke-miterlimit:4;stroke-dasharray:none;stroke-opacity:1"
         d="m 2949.2,-5025.77 v 4.08 h -35.1 v 33.09 h 37.95 v 4.08 h -42.37 v -67.53 h 42.53 v 4.08 h -38.11 v 22.2 z" />
    </g>
    <path
       inkscape:connector-curvature="0"
       id="path1761"
       style="fill:#000000;fill-opacity:1;fill-rule:nonzero;stroke:none;stroke-width:0.06418306"
       d="m 195.0618,7.057331 v 0.2759871 h -1.15337 v 4.2919209 h -0.26572 V 7.3333181 h -1.15593 V 7.057331 Z" />
    <g
       transform="matrix(0.06071583,0,0,0.06765022,6.5638573,348.82956)"
       id="g1763">
      <path
         inkscape:connector-curvature="0"
         id="path1765"
         style="fill:none;stroke:#000000;stroke-width:5.67757988;stroke-linecap:butt;stroke-linejoin:round;stroke-miterlimit:4;stroke-dasharray:none;stroke-opacity:1"
         d="m 3104.58,-5052.05 v 4.08 h -18.99 v 63.45 h -4.38 v -63.45 h -19.04 v -4.08 z" />
    </g>
    <path
       inkscape:connector-curvature="0"
       id="path1767"
       style="fill:#000000;fill-opacity:1;fill-rule:nonzero;stroke:none;stroke-width:0.06418306"
       d="m 204.45307,8.8345591 v 0.2759882 h -2.13089 v 2.2387057 h 2.30419 v 0.275986 h -2.56991 V 7.057331 h 2.5821 v 0.2759871 h -2.31638 v 1.501241 z" />
    <g
       transform="matrix(0.06071583,0,0,0.06765022,6.5638573,348.82956)"
       id="g1769">
      <path
         inkscape:connector-curvature="0"
         id="path1771"
         style="fill:none;stroke:#000000;stroke-width:5.67757988;stroke-linecap:butt;stroke-linejoin:round;stroke-miterlimit:4;stroke-dasharray:none;stroke-opacity:1"
         d="m 3259.27,-5025.77 v 4.08 h -35.1 v 33.09 h 37.95 v 4.08 h -42.33 v -67.53 h 42.53 v 4.08 h -38.15 v 22.2 z" />
    </g>
    <path
       inkscape:connector-curvature="0"
       id="path1773"
       style="fill:#000000;fill-opacity:1;fill-rule:nonzero;stroke:none;stroke-width:0.06418306"
       d="m 129.23373,25.081218 h 0.6245 c 0.36328,0 0.69703,-0.08793 0.99997,-0.263151 0.30616,-0.175859 0.54684,-0.416548 0.72206,-0.724626 0.18036,-0.30872 0.26829,-0.646965 0.26829,-1.015375 0,-0.373546 -0.0879,-0.714358 -0.26829,-1.023079 -0.17522,-0.308078 -0.4159,-0.551332 -0.72206,-0.727193 -0.30294,-0.175223 -0.63669,-0.263151 -0.99997,-0.263151 h -0.6245 z m -0.26828,0.275988 v -4.568551 h 0.89278 c 0.30551,0 0.59626,0.06033 0.87482,0.178425 0.27855,0.117458 0.51924,0.28048 0.71949,0.483941 0.20282,0.20025 0.36327,0.443504 0.48394,0.726551 0.11809,0.28369 0.17779,0.584709 0.17779,0.900488 0,0.418474 -0.10269,0.804857 -0.30295,1.155938 -0.20346,0.348515 -0.47688,0.623859 -0.82283,0.822186 -0.34337,0.20025 -0.72206,0.301019 -1.13026,0.301019 z" />
    <g
       transform="matrix(0.06071583,0,0,0.06765022,6.5638573,348.82956)"
       id="g1775">
      <path
         inkscape:connector-curvature="0"
         id="path1777"
         style="fill:none;stroke:#000000;stroke-width:5.67757988;stroke-linecap:butt;stroke-linejoin:round;stroke-miterlimit:4;stroke-dasharray:none;stroke-opacity:1"
         d="m 2020.39,-4785.62 h 10.28 c 5.99,0 11.48,-1.3 16.48,-3.89 5.03,-2.6 9,-6.16 11.89,-10.71 2.97,-4.56 4.43,-9.56 4.43,-15.01 0,-5.52 -1.46,-10.56 -4.43,-15.12 -2.89,-4.56 -6.86,-8.15 -11.89,-10.75 -5,-2.59 -10.49,-3.89 -16.48,-3.89 h -10.28 z m -4.42,4.08 v -67.53 h 14.7 c 5.04,0 9.83,0.89 14.42,2.64 4.58,1.73 8.54,4.14 11.85,7.15 3.34,2.96 5.98,6.56 7.97,10.74 1.94,4.19 2.93,8.64 2.93,13.31 0,6.19 -1.69,11.9 -5,17.09 -3.34,5.15 -7.85,9.22 -13.54,12.15 -5.66,2.96 -11.9,4.45 -18.63,4.45 z" />
    </g>
    <path
       inkscape:connector-curvature="0"
       id="path1779"
       style="fill:#000000;fill-opacity:1;fill-rule:nonzero;stroke:none;stroke-width:0.06418306"
       d="m 141.69423,22.566527 v 0.275986 h -2.13088 v 2.238705 h 2.30417 v 0.275988 h -2.57246 v -4.568551 h 2.58466 v 0.275988 h -2.31637 v 1.501884 z" />
    <g
       transform="matrix(0.06071583,0,0,0.06765022,6.5638573,348.82956)"
       id="g1781">
      <path
         inkscape:connector-curvature="0"
         id="path1783"
         style="fill:none;stroke:#000000;stroke-width:5.67757988;stroke-linecap:butt;stroke-linejoin:round;stroke-miterlimit:4;stroke-dasharray:none;stroke-opacity:1"
         d="m 2225.62,-4822.79 v 4.08 h -35.1 v 33.09 h 37.95 v 4.08 h -42.37 v -67.53 h 42.58 v 4.08 h -38.16 v 22.2 z" />
    </g>
    <path
       inkscape:connector-curvature="0"
       id="path1785"
       style="fill:#000000;fill-opacity:1;fill-rule:nonzero;stroke:none;stroke-width:0.06418306"
       d="m 152.59315,24.298827 0.21309,0.150825 c -0.20603,0.290749 -0.46661,0.521165 -0.78496,0.689326 -0.31835,0.168163 -0.65916,0.250313 -1.02564,0.250313 -0.30552,0 -0.59883,-0.05969 -0.87482,-0.182921 -0.27855,-0.122588 -0.51667,-0.288181 -0.71692,-0.496134 -0.20089,-0.207953 -0.36135,-0.453775 -0.48138,-0.741958 -0.11809,-0.288824 -0.17842,-0.589201 -0.17842,-0.905622 0,-0.315782 0.0603,-0.618725 0.17842,-0.904982 0.12003,-0.288182 0.28049,-0.53657 0.48138,-0.744523 0.20025,-0.207953 0.43837,-0.373544 0.71692,-0.493568 0.27599,-0.123225 0.5693,-0.18613 0.87482,-0.18613 0.36392,0 0.70473,0.08793 1.02307,0.258657 0.31579,0.168164 0.57894,0.401144 0.78753,0.694462 l -0.21309,0.160449 c -0.18613,-0.253517 -0.41655,-0.453768 -0.69703,-0.602032 -0.27855,-0.147623 -0.577,-0.222714 -0.90048,-0.222714 -0.36071,0 -0.69446,0.09242 -0.99998,0.275345 -0.30358,0.183564 -0.54427,0.433877 -0.71949,0.749659 -0.17842,0.313854 -0.26571,0.657233 -0.26571,1.030779 0,0.277912 0.0501,0.541705 0.15532,0.794587 0.10526,0.253523 0.24518,0.471744 0.42104,0.654667 0.17779,0.182922 0.38831,0.330541 0.63413,0.440937 0.24582,0.107833 0.50383,0.163033 0.77469,0.163033 0.32348,0 0.62193,-0.07508 0.90048,-0.223358 0.28048,-0.150188 0.5109,-0.353007 0.69703,-0.609097 z" />
    <g
       transform="matrix(0.06071583,0,0,0.06765022,6.5638573,348.82956)"
       id="g1787">
      <path
         inkscape:connector-curvature="0"
         id="path1789"
         style="fill:none;stroke:#000000;stroke-width:5.67757988;stroke-linecap:butt;stroke-linejoin:round;stroke-miterlimit:4;stroke-dasharray:none;stroke-opacity:1"
         d="m 2405.12,-4797.19 3.51,2.24 c -3.39,4.3 -7.68,7.7 -12.92,10.18 -5.25,2.49 -10.87,3.71 -16.89,3.71 -5.04,0 -9.87,-0.89 -14.41,-2.71 -4.59,-1.81 -8.51,-4.26 -11.81,-7.33 -3.31,-3.08 -5.95,-6.71 -7.94,-10.97 -1.93,-4.27 -2.93,-8.71 -2.93,-13.39 0,-4.67 1,-9.14 2.93,-13.37 1.99,-4.26 4.63,-7.94 7.94,-11.01 3.3,-3.07 7.22,-5.52 11.81,-7.3 4.54,-1.81 9.37,-2.74 14.41,-2.74 5.99,0 11.6,1.29 16.85,3.82 5.2,2.48 9.53,5.93 12.96,10.26 l -3.51,2.37 c -3.06,-3.74 -6.85,-6.7 -11.48,-8.89 -4.59,-2.19 -9.5,-3.3 -14.82,-3.3 -5.95,0 -11.44,1.37 -16.48,4.07 -4.99,2.72 -8.96,6.42 -11.85,11.08 -2.93,4.64 -4.38,9.72 -4.38,15.24 0,4.11 0.83,8.01 2.57,11.75 1.72,3.75 4.04,6.97 6.93,9.67 2.93,2.71 6.4,4.89 10.45,6.52 4.04,1.6 8.3,2.41 12.76,2.41 5.32,0 10.23,-1.11 14.82,-3.3 4.63,-2.22 8.42,-5.22 11.48,-9.01 z" />
    </g>
    <path
       inkscape:connector-curvature="0"
       id="path1791"
       style="fill:#000000;fill-opacity:1;fill-rule:nonzero;stroke:none;stroke-width:0.06418306"
       d="m 161.23027,20.934351 c 0.27791,-0.122589 0.56866,-0.185489 0.87481,-0.185489 0.30551,0 0.5969,0.0629 0.87482,0.185489 0.27855,0.120023 0.51924,0.285615 0.71949,0.49421 0.20346,0.207953 0.36392,0.455699 0.48137,0.744523 0.12066,0.285614 0.17843,0.5892 0.17843,0.904982 0,0.315779 -0.0578,0.616798 -0.17843,0.90498 -0.11746,0.285614 -0.27791,0.531435 -0.48137,0.739389 -0.20025,0.208595 -0.44094,0.373546 -0.71949,0.496776 -0.27792,0.122589 -0.56931,0.182923 -0.87482,0.182923 -0.30615,0 -0.5969,-0.06033 -0.87481,-0.182923 -0.27856,-0.123225 -0.51667,-0.288181 -0.71757,-0.496776 -0.20025,-0.207954 -0.36071,-0.453775 -0.4788,-0.739389 -0.12003,-0.288182 -0.18036,-0.589201 -0.18036,-0.90498 0,-0.315782 0.0603,-0.619368 0.18036,-0.904982 0.11809,-0.288824 0.27855,-0.53657 0.4788,-0.744523 0.2009,-0.208595 0.43901,-0.374188 0.71757,-0.49421 z m -1.11101,2.143715 c 0,0.277911 0.0526,0.541704 0.15532,0.794586 0.10525,0.253523 0.24581,0.471744 0.42168,0.654667 0.17779,0.182922 0.3883,0.330542 0.63413,0.440937 0.24582,0.107833 0.50384,0.163033 0.77468,0.163033 0.27086,0 0.52887,-0.0552 0.77726,-0.163033 0.24583,-0.110399 0.45634,-0.258015 0.63156,-0.440937 0.17779,-0.182923 0.31835,-0.401144 0.42361,-0.654667 0.10527,-0.252882 0.15788,-0.516675 0.15788,-0.794586 0,-0.373546 -0.0873,-0.716925 -0.26571,-1.03078 -0.17523,-0.315781 -0.41847,-0.566095 -0.72463,-0.749659 -0.30551,-0.182921 -0.63926,-0.275344 -0.99997,-0.275344 -0.36135,0 -0.69446,0.09242 -1.00061,0.275344 -0.30295,0.183564 -0.54364,0.433878 -0.7195,0.749659 -0.17779,0.313855 -0.26572,0.657234 -0.26572,1.03078 z" />
    <g
       transform="matrix(0.06071583,0,0,0.06765022,6.5638573,348.82956)"
       id="g1793">
      <path
         inkscape:connector-curvature="0"
         id="path1795"
         style="fill:none;stroke:#000000;stroke-width:5.67757988;stroke-linecap:butt;stroke-linejoin:round;stroke-miterlimit:4;stroke-dasharray:none;stroke-opacity:1"
         d="m 2547.37,-4846.92 c 4.59,-1.81 9.38,-2.74 14.41,-2.74 5.04,0 9.84,0.93 14.42,2.74 4.58,1.78 8.54,4.22 11.85,7.31 3.35,3.07 5.98,6.74 7.93,11.01 1.98,4.22 2.93,8.7 2.93,13.37 0,4.67 -0.95,9.12 -2.93,13.38 -1.95,4.22 -4.58,7.86 -7.93,10.93 -3.31,3.08 -7.27,5.52 -11.85,7.34 -4.58,1.81 -9.38,2.71 -14.42,2.71 -5.03,0 -9.82,-0.9 -14.41,-2.71 -4.58,-1.82 -8.5,-4.26 -11.81,-7.34 -3.3,-3.07 -5.94,-6.71 -7.88,-10.93 -1.99,-4.26 -2.97,-8.71 -2.97,-13.38 0,-4.67 0.98,-9.15 2.97,-13.37 1.94,-4.27 4.58,-7.94 7.88,-11.01 3.31,-3.09 7.23,-5.53 11.81,-7.31 z m -18.29,31.69 c 0,4.11 0.87,8.01 2.56,11.75 1.74,3.75 4.05,6.97 6.94,9.67 2.93,2.71 6.4,4.89 10.44,6.52 4.06,1.6 8.3,2.41 12.76,2.41 4.46,0 8.72,-0.81 12.8,-2.41 4.06,-1.63 7.53,-3.81 10.41,-6.52 2.93,-2.7 5.25,-5.92 6.98,-9.67 1.74,-3.74 2.6,-7.64 2.6,-11.75 0,-5.52 -1.44,-10.6 -4.37,-15.24 -2.89,-4.66 -6.9,-8.36 -11.94,-11.08 -5.03,-2.7 -10.53,-4.07 -16.48,-4.07 -5.94,0 -11.43,1.37 -16.46,4.07 -5,2.72 -8.97,6.42 -11.86,11.08 -2.94,4.64 -4.38,9.72 -4.38,15.24 z" />
    </g>
    <path
       inkscape:connector-curvature="0"
       id="path1797"
       style="fill:#000000;fill-opacity:1;fill-rule:nonzero;stroke:none;stroke-width:0.06418306"
       d="m 171.54192,25.357206 v -4.568551 h 1.57697 c 0.31835,0 0.58921,0.12066 0.81256,0.358783 0.22272,0.235553 0.33311,0.523735 0.33311,0.862622 0,0.288182 -0.0879,0.543629 -0.26058,0.766987 -0.17329,0.223357 -0.39088,0.361351 -0.64953,0.416548 l 1.1508,2.163611 h -0.30102 l -1.1431,-2.143714 h -1.25092 v 2.143714 z m 0.26829,-2.417133 h 1.31896 c 0.23555,0 0.4358,-0.0905 0.60653,-0.273421 0.17073,-0.180354 0.25544,-0.398577 0.25544,-0.656592 0,-0.260584 -0.0847,-0.483941 -0.25544,-0.666864 -0.17073,-0.185487 -0.37612,-0.278553 -0.61681,-0.278553 h -1.30868 z" />
    <g
       transform="matrix(0.06071583,0,0,0.06765022,6.5638573,348.82956)"
       id="g1799">
      <path
         inkscape:connector-curvature="0"
         id="path1801"
         style="fill:none;stroke:#000000;stroke-width:5.67757988;stroke-linecap:butt;stroke-linejoin:round;stroke-miterlimit:4;stroke-dasharray:none;stroke-opacity:1"
         d="m 2717.22,-4781.54 v -67.53 h 25.96 c 5.25,0 9.71,1.78 13.38,5.3 3.68,3.48 5.5,7.75 5.5,12.75 0,4.26 -1.45,8.04 -4.29,11.34 -2.86,3.31 -6.44,5.34 -10.7,6.16 l 18.95,31.98 h -4.95 l -18.84,-31.69 h -20.6 v 31.69 z m 4.41,-35.73 h 21.73 c 3.88,0 7.18,-1.34 9.99,-4.04 2.8,-2.67 4.21,-5.89 4.21,-9.71 0,-3.85 -1.41,-7.15 -4.21,-9.85 -2.81,-2.74 -6.2,-4.12 -10.17,-4.12 h -21.55 z" />
    </g>
    <g
       transform="matrix(0.06071589,0,0,0.06765022,6.5638573,348.82956)"
       id="g1803">
      <path
         inkscape:connector-curvature="0"
         id="path1805"
         style="fill:none;stroke:#000000;stroke-width:37.86650085;stroke-linecap:butt;stroke-linejoin:miter;stroke-miterlimit:4;stroke-dasharray:none;stroke-opacity:1"
         d="m 171.821,-4781.5 c -75.2817,0.55 -151.5048,-59.49 -145.6783,-141.73 4.8685,-69.19 69.1248,-122.85 144.4843,-124.15 84.106,-1.52 148.945,56.77 150.964,125.49 2.267,77.71 -62.105,139.79 -149.77,140.39 z" />
    </g>
    <g
       transform="matrix(0.06071589,0,0,0.06765022,6.5638573,348.82956)"
       id="g1807">
      <path
         inkscape:connector-curvature="0"
         id="path1809"
         style="fill:none;stroke:#000000;stroke-width:37.86650085;stroke-linecap:butt;stroke-linejoin:miter;stroke-miterlimit:4;stroke-dasharray:none;stroke-opacity:1"
         d="m 526.447,-4782.73 c -75.274,0.52 -151.546,-59.48 -145.683,-141.72 4.869,-69.23 69.129,-122.85 144.485,-124.19 84.118,-1.48 148.944,56.78 150.968,125.53 2.312,77.71 -62.105,139.79 -149.77,140.38 z" />
    </g>
    <g
       transform="matrix(0.06071589,0,0,0.06765022,6.5638573,348.82956)"
       id="g1811">
      <path
         inkscape:connector-curvature="0"
         id="path1813"
         style="fill:none;stroke:#000000;stroke-width:37.86650085;stroke-linecap:round;stroke-linejoin:round;stroke-miterlimit:4;stroke-dasharray:none;stroke-opacity:1"
         d="m 1090.39,-5045.46 1.24,113.97 c 2.15,194.2 297.02,193.31 298.71,1.81 l 1,-116.69" />
    </g>
    <path
       inkscape:connector-curvature="0"
       id="path1815"
       style="fill:#008000;fill-opacity:1;fill-rule:nonzero;stroke:none;stroke-width:0.06418306"
       d="m 40.380562,16.306112 c 0.04763,0.83502 -0.591702,1.549378 -1.426853,1.596874 -0.837332,0.05007 -1.554385,-0.5892 -1.601816,-1.42358 -0.05012,-0.835022 0.589201,-1.554514 1.424093,-1.60201 0.83438,-0.05071 1.553936,0.586633 1.604576,1.421012 l -1.514592,0.09306 z" />
    <g
       transform="matrix(0.06071589,0,0,0.06765022,6.5638573,348.82956)"
       id="g1817">
      <path
         inkscape:connector-curvature="0"
         id="path1819"
         style="fill:none;stroke:#000000;stroke-width:26.7159996;stroke-linecap:round;stroke-linejoin:round;stroke-miterlimit:4;stroke-dasharray:none;stroke-opacity:1"
         d="m 556.966,-4915.33 c 0.781,12.34 -9.753,22.9 -23.5,23.6 -13.796,0.74 -25.597,-8.71 -26.386,-21.04 -0.822,-12.35 9.708,-22.98 23.455,-23.68 13.746,-0.75 25.597,8.67 26.431,21 l -24.941,1.38 z" />
    </g>
    <g
       transform="matrix(0.06071589,0,0,0.06765022,6.5638573,348.82956)"
       id="g1821">
      <path
         inkscape:connector-curvature="0"
         id="path1823"
         style="fill:none;stroke:#000000;stroke-width:37.86650085;stroke-linecap:round;stroke-linejoin:round;stroke-miterlimit:4;stroke-dasharray:none;stroke-opacity:1"
         d="m 1461.74,-4785.69 1.24,-113.93 c 2.15,-194.23 297.02,-193.35 298.71,-1.85 l 1,116.7" />
    </g>
    <g
       transform="matrix(0.06071589,0,0,0.06765022,6.5638573,348.82956)"
       id="g1825">
      <path
         inkscape:connector-curvature="0"
         id="path1827"
         style="fill:none;stroke:#000000;stroke-width:37.86650085;stroke-linecap:round;stroke-linejoin:round;stroke-miterlimit:4;stroke-dasharray:none;stroke-opacity:1"
         d="m 738.037,-4782.47 -1.578,-121.59 c -2.106,-158.07 215.063,-189.13 283.481,-71.91" />
    </g>
  </g>
</svg>
