<?xml version="1.0" encoding="UTF-8" standalone="no"?>
<!-- Created with Inkscape (http://www.inkscape.org/) -->

<svg
   xmlns:dc="http://purl.org/dc/elements/1.1/"
   xmlns:cc="http://creativecommons.org/ns#"
   xmlns:rdf="http://www.w3.org/1999/02/22-rdf-syntax-ns#"
   xmlns:svg="http://www.w3.org/2000/svg"
   xmlns="http://www.w3.org/2000/svg"
   xmlns:sodipodi="http://sodipodi.sourceforge.net/DTD/sodipodi-0.dtd"
   xmlns:inkscape="http://www.inkscape.org/namespaces/inkscape"
   width="179.49438mm"
   height="34.614651mm"
   viewBox="0 0 179.49438 34.614652"
   version="1.1"
   id="svg1044"
   inkscape:version="0.92.5 (2060ec1f9f, 2020-04-08)"
   sodipodi:docname="logo.svg">
  <defs
     id="defs1038" />
  <sodipodi:namedview
     id="base"
     pagecolor="#ffffff"
     bordercolor="#666666"
     borderopacity="1.0"
     inkscape:pageopacity="0.0"
     inkscape:pageshadow="2"
     inkscape:zoom="0.9899495"
     inkscape:cx="261.49053"
     inkscape:cy="185.45027"
     inkscape:document-units="mm"
     inkscape:current-layer="layer1"
     showgrid="false"
     inkscape:window-width="1294"
     inkscape:window-height="704"
     inkscape:window-x="72"
     inkscape:window-y="27"
     inkscape:window-maximized="1"
     fit-margin-top="0"
     fit-margin-left="0"
     fit-margin-right="0"
     fit-margin-bottom="0"
     width="178.49438mm" />
  <metadata
     id="metadata1041">
    <rdf:RDF>
      <cc:Work
         rdf:about="">
        <dc:format>image/svg+xml</dc:format>
        <dc:type
           rdf:resource="http://purl.org/dc/dcmitype/StillImage" />
        <dc:title></dc:title>
      </cc:Work>
    </rdf:RDF>
  </metadata>
  <g
     inkscape:label="Layer 1"
     inkscape:groupmode="layer"
     id="layer1"
     transform="translate(-15.795212,-11.667998)">
    <path
       d="m 32.745412,43.754465 c -7.47572,0.0579 -15.0453,-6.58292 -14.46666,-15.68207 0.48645,-7.65641 6.86539,-13.59148 14.34523,-13.73753 8.35106,-0.16404 14.78926,6.28234 14.9903,13.88784 0.22751,8.59607 -6.16521,15.46437 -14.86887,15.53176 z"
       style="fill:none;stroke:#54aa44;stroke-width:3.96875;stroke-linecap:butt;stroke-linejoin:miter;stroke-miterlimit:4;stroke-dasharray:none;stroke-opacity:1"
       id="path41-6"
       inkscape:connector-curvature="0" />
    <path
       d="m 69.546003,43.696538 c -7.47572,0.0579 -15.04668,-6.58286 -14.46813,-15.68207 0.48789,-7.65622 6.86682,-13.59143 14.34571,-13.73783 8.35202,-0.16369 14.79021,6.28264 14.99164,13.88819 0.22719,8.59605 -6.16549,15.46432 -14.86922,15.53171 z"
       style="fill:none;stroke:#54aa44;stroke-width:3.96875;stroke-linecap:butt;stroke-linejoin:miter;stroke-miterlimit:4;stroke-dasharray:none;stroke-opacity:1"
       id="path43-7"
       inkscape:connector-curvature="0" />
    <path
       style="fill:none;stroke:#54aa44;stroke-width:3.96875;stroke-linecap:round;stroke-linejoin:round;stroke-miterlimit:4;stroke-dasharray:none;stroke-opacity:1"
       d="m 126.43082,14.631915 0.12491,12.60535 c 0.21291,21.48679 29.49011,21.38773 29.65632,0.20307 l 0.10131,-12.9133"
       id="path61-1"
       inkscape:connector-curvature="0"
       sodipodi:nodetypes="cssc" />
    <path
       style="fill:#008000;fill-opacity:1;stroke:#54aa44;stroke-width:2.80008554;stroke-linecap:round;stroke-linejoin:round;stroke-miterlimit:4;stroke-dasharray:none;stroke-dashoffset:0;stroke-opacity:1"
       id="path879-2"
       sodipodi:type="arc"
       sodipodi:cx="70.097237"
       sodipodi:cy="29.162472"
       sodipodi:rx="2.4804688"
       sodipodi:ry="2.4804688"
       sodipodi:start="6.2270381"
       sodipodi:end="6.2224828"
       d="M 72.573797,29.023274 A 2.4804687,2.4804687 0 0 1 70.239255,31.638872 2.4804687,2.4804687 0 0 1 67.621,29.30731 a 2.4804687,2.4804687 0 0 1 2.328578,-2.620908 2.4804687,2.4804687 0 0 1 2.623559,2.325592 l -2.4759,0.150478 z" />
    <path
       sodipodi:nodetypes="cssc"
       inkscape:connector-curvature="0"
       id="path959-3"
       d="m 163.30039,43.368746 0.12491,-12.60531 c 0.21291,-21.4867998 29.49011,-21.3877398 29.65632,-0.20306 l 0.10131,12.91325"
       style="fill:none;stroke:#54aa44;stroke-width:3.96875;stroke-linecap:round;stroke-linejoin:round;stroke-miterlimit:4;stroke-dasharray:none;stroke-opacity:1" />
    <path
       sodipodi:nodetypes="csc"
       inkscape:connector-curvature="0"
       id="path959-3-3"
       d="M 91.450833,43.727543 91.292261,30.271787 C 91.086168,12.783561 112.64499,9.3472005 119.43668,22.320215"
       style="fill:none;stroke:#54aa44;stroke-width:3.96875;stroke-linecap:round;stroke-linejoin:round;stroke-miterlimit:4;stroke-dasharray:none;stroke-opacity:1" />
  </g>
</svg>
