<?xml version="1.0" encoding="UTF-8" standalone="no"?>
<svg
   xmlns:dc="http://purl.org/dc/elements/1.1/"
   xmlns:cc="http://creativecommons.org/ns#"
   xmlns:rdf="http://www.w3.org/1999/02/22-rdf-syntax-ns#"
   xmlns:svg="http://www.w3.org/2000/svg"
   xmlns="http://www.w3.org/2000/svg"
   id="svg8"
   version="1.1"
   viewBox="0 0 97.366669 27.334107"
   height="103.31001"
   width="368">
  <defs
     id="defs2" />
  <metadata
     id="metadata5">
    <rdf:RDF>
      <cc:Work
         rdf:about="">
        <dc:format>image/svg+xml</dc:format>
        <dc:type
           rdf:resource="http://purl.org/dc/dcmitype/StillImage" />
        <dc:title></dc:title>
      </cc:Work>
    </rdf:RDF>
  </metadata>
  <g
     transform="translate(-19.9,-243.81689)"
     id="layer1">
    <path
       id="path41-6"
       style="fill:none;stroke:#33b938;stroke-width:2.15362954;stroke-linecap:butt;stroke-linejoin:miter;stroke-miterlimit:4;stroke-dasharray:none;stroke-opacity:1"
       d="m 28.994047,260.89046 c -4.056912,0.0313 -8.164759,-3.57199 -7.850743,-8.50931 0.263984,-4.15449 3.725698,-7.37495 7.784846,-7.45421 4.53194,-0.0891 8.025814,3.40891 8.134915,7.53575 0.12348,4.66437 -3.345727,8.3912 -8.069018,8.42777 z" />
    <path
       id="path43-7"
       style="fill:none;stroke:#33b938;stroke-width:2.15362954;stroke-linecap:butt;stroke-linejoin:miter;stroke-miterlimit:4;stroke-dasharray:none;stroke-opacity:1"
       d="m 48.964938,260.85905 c -4.056914,0.0313 -8.16551,-3.57199 -7.851542,-8.50934 0.264765,-4.15439 3.726473,-7.37491 7.785105,-7.45436 4.53246,-0.0889 8.02633,3.40905 8.135641,7.53596 0.123287,4.66431 -3.345877,8.39116 -8.069204,8.42774 z" />
    <path
       id="path61-1"
       d="m 79.835103,245.08813 0.06778,6.83985 c 0.115549,11.65907 16.003649,11.60532 16.093846,0.11015 l 0.05498,-7.00696"
       style="fill:none;stroke:#33b938;stroke-width:2.15362954;stroke-linecap:round;stroke-linejoin:round;stroke-miterlimit:4;stroke-dasharray:none;stroke-opacity:1" />
    <path
       d="m 50.608071,252.89708 a 1.346097,1.34594 0 0 1 -1.266905,1.41926 1.346097,1.34594 0 0 1 -1.420871,-1.26514 1.346097,1.34594 0 0 1 1.263669,-1.42214 1.346097,1.34594 0 0 1 1.423749,1.2619 l -1.343618,0.0816 z"
       id="path879-2"
       style="fill:#008000;fill-opacity:1;stroke:#33b938;stroke-width:1.51945746;stroke-linecap:round;stroke-linejoin:round;stroke-miterlimit:4;stroke-dasharray:none;stroke-dashoffset:0;stroke-opacity:1" />
    <path
       style="fill:none;stroke:#33b938;stroke-width:2.15362954;stroke-linecap:round;stroke-linejoin:round;stroke-miterlimit:4;stroke-dasharray:none;stroke-opacity:1"
       d="m 99.843424,260.68118 0.06778,-6.83984 c 0.115556,-11.65907 16.003656,-11.60531 16.093856,-0.11015 l 0.055,7.00691"
       id="path959-3" />
    <path
       style="fill:none;stroke:#33b938;stroke-width:2.15362954;stroke-linecap:round;stroke-linejoin:round;stroke-miterlimit:4;stroke-dasharray:none;stroke-opacity:1"
       d="m 60.852214,260.87586 -0.08605,-7.3013 c -0.11186,-9.48938 11.587665,-11.35401 15.273371,-4.31463"
       id="path959-3-3" />
    <flowRoot
       transform="matrix(0.26458333,0,0,0.26458333,7.5299603,220.6791)"
       style="font-style:normal;font-weight:normal;font-size:40px;line-height:1.25;font-family:sans-serif;letter-spacing:0px;word-spacing:0px;fill:#000000;fill-opacity:1;stroke:none"
       id="flowRoot149"
       xml:space="preserve"><flowRegion
         id="flowRegion151"><rect
           y="158.5009"
           x="46.467018"
           height="45.456875"
           width="278.29703"
           id="rect153" /></flowRegion><flowPara
         style="font-style:normal;font-variant:normal;font-weight:normal;font-stretch:normal;font-size:13.33333397px;font-family:'Tlwg Mono';-inkscape-font-specification:'Tlwg Mono';letter-spacing:8.67000008px;word-spacing:9.79999924px;fill:#4d4d4d"
         id="flowPara155" /></flowRoot>    <flowRoot
       style="font-style:normal;font-weight:normal;font-size:40px;line-height:1.25;font-family:sans-serif;letter-spacing:0px;word-spacing:0px;fill:#000000;fill-opacity:1;stroke:none"
       id="flowRoot1202"
       xml:space="preserve"><flowRegion
         id="flowRegion1204"><rect
           y="137.79279"
           x="40.911179"
           height="61.619305"
           width="289.40869"
           id="rect1206" /></flowRegion><flowPara
         id="flowPara1208" /></flowRoot>    <g
       id="flowRoot1210"
       style="font-style:normal;font-variant:normal;font-weight:normal;font-stretch:normal;font-size:10.66666698px;line-height:1.25;font-family:'Tlwg Mono';-inkscape-font-specification:'Tlwg Mono';letter-spacing:11.06999969px;word-spacing:5.57999992px;fill:#ffffff;fill-opacity:1;stroke:none"
       transform="matrix(0.39519634,0,0,0.39515216,-6.7029402,196.20247)"
       aria-label="CONCRETE DECOR">
      <path
         id="path1751"
         style="font-style:normal;font-variant:normal;font-weight:normal;font-stretch:normal;font-size:10.66666698px;font-family:Sawasdee;-inkscape-font-specification:Sawasdee;letter-spacing:11.06999969px;word-spacing:5.57999992px;fill:#ffffff"
         d="m 74.05013,187.77943 0.375,0.25521 q -0.541666,0.74479 -1.375,1.17708 -0.833333,0.42708 -1.796875,0.42708 -0.802083,0 -1.53125,-0.3125 -0.729166,-0.3125 -1.255208,-0.84375 -0.526042,-0.53125 -0.838542,-1.26562 -0.3125,-0.73438 -0.3125,-1.54167 0,-0.80729 0.3125,-1.54167 0.3125,-0.73437 0.838542,-1.26562 0.526042,-0.53125 1.255208,-0.84375 0.729167,-0.3125 1.53125,-0.3125 0.958334,0 1.791667,0.4375 0.833333,0.43229 1.380208,1.18229 l -0.375,0.27604 q -0.484375,-0.65104 -1.21875,-1.02604 -0.729166,-0.38021 -1.578125,-0.38021 -0.947916,0 -1.75,0.46875 -0.796875,0.46875 -1.260416,1.27604 -0.463542,0.80209 -0.463542,1.75521 0,0.70834 0.270833,1.35417 0.276042,0.64583 0.739584,1.11458 0.463541,0.46875 1.109375,0.75 0.645833,0.27604 1.354166,0.27604 0.848959,0 1.578125,-0.3802 0.734375,-0.38021 1.21875,-1.03646 z" />
      <path
         id="path1753"
         style="font-style:normal;font-variant:normal;font-weight:normal;font-stretch:normal;font-size:10.66666698px;font-family:Sawasdee;-inkscape-font-specification:Sawasdee;letter-spacing:11.06999969px;word-spacing:5.57999992px;fill:#ffffff"
         d="m 89.167005,182.05026 q 0.729167,-0.3125 1.53125,-0.3125 0.802083,0 1.53125,0.3125 0.734375,0.3125 1.260417,0.84375 0.53125,0.53125 0.84375,1.26563 0.3125,0.73437 0.3125,1.54166 0,0.80729 -0.3125,1.54167 -0.3125,0.72917 -0.84375,1.26042 -0.526042,0.53125 -1.260417,0.84375 -0.729167,0.3125 -1.53125,0.3125 -0.802083,0 -1.53125,-0.3125 -0.729167,-0.3125 -1.255208,-0.84375 -0.526042,-0.53125 -0.838542,-1.26042 -0.3125,-0.73438 -0.3125,-1.54167 0,-0.80729 0.3125,-1.54166 0.3125,-0.73438 0.838542,-1.26563 0.526041,-0.53125 1.255208,-0.84375 z m -1.942708,3.65104 q 0,0.70834 0.270833,1.35417 0.276042,0.64583 0.739583,1.11458 0.463542,0.46875 1.109375,0.75 0.645834,0.27604 1.354167,0.27604 0.713542,0 1.359375,-0.27604 0.645833,-0.28125 1.109375,-0.75 0.463542,-0.46875 0.739583,-1.11458 0.276042,-0.64583 0.276042,-1.35417 0,-0.95312 -0.463542,-1.75521 -0.463541,-0.80729 -1.270833,-1.27604 -0.802083,-0.46875 -1.75,-0.46875 -0.947917,0 -1.75,0.46875 -0.796875,0.46875 -1.260417,1.27604 -0.463541,0.80209 -0.463541,1.75521 z" />
      <path
         id="path1755"
         style="font-style:normal;font-variant:normal;font-weight:normal;font-stretch:normal;font-size:10.66666698px;font-family:Sawasdee;-inkscape-font-specification:Sawasdee;letter-spacing:11.06999969px;word-spacing:5.57999992px;fill:#ffffff"
         d="m 107.21617,189.58151 v -7.86979 l 6.54167,6.81771 v -6.72396 h 0.46354 v 7.86458 l -6.53646,-6.80729 v 6.71875 z" />
      <path
         id="path1757"
         style="font-style:normal;font-variant:normal;font-weight:normal;font-stretch:normal;font-size:10.66666698px;font-family:Sawasdee;-inkscape-font-specification:Sawasdee;letter-spacing:11.06999969px;word-spacing:5.57999992px;fill:#ffffff"
         d="m 133.53097,187.77943 0.375,0.25521 q -0.54167,0.74479 -1.375,1.17708 -0.83334,0.42708 -1.79688,0.42708 -0.80208,0 -1.53125,-0.3125 -0.72917,-0.3125 -1.25521,-0.84375 -0.52604,-0.53125 -0.83854,-1.26562 -0.3125,-0.73438 -0.3125,-1.54167 0,-0.80729 0.3125,-1.54167 0.3125,-0.73437 0.83854,-1.26562 0.52604,-0.53125 1.25521,-0.84375 0.72917,-0.3125 1.53125,-0.3125 0.95833,0 1.79167,0.4375 0.83333,0.43229 1.38021,1.18229 l -0.375,0.27604 q -0.48438,-0.65104 -1.21875,-1.02604 -0.72917,-0.38021 -1.57813,-0.38021 -0.94792,0 -1.75,0.46875 -0.79687,0.46875 -1.26042,1.27604 -0.46354,0.80209 -0.46354,1.75521 0,0.70834 0.27084,1.35417 0.27604,0.64583 0.73958,1.11458 0.46354,0.46875 1.10937,0.75 0.64584,0.27604 1.35417,0.27604 0.84896,0 1.57813,-0.3802 0.73437,-0.38021 1.21875,-1.03646 z" />
      <path
         id="path1759"
         style="font-style:normal;font-variant:normal;font-weight:normal;font-stretch:normal;font-size:10.66666698px;font-family:Sawasdee;-inkscape-font-specification:Sawasdee;letter-spacing:11.06999969px;word-spacing:5.57999992px;fill:#ffffff"
         d="m 146.47076,189.58151 v -7.77604 h 2.76041 q 0.83854,0 1.42188,0.60937 0.58333,0.60417 0.58333,1.46875 0,0.73438 -0.45833,1.3073 -0.45313,0.5677 -1.13542,0.70833 l 2.01563,3.68229 h -0.52604 l -2.00001,-3.65104 h -2.1927 v 3.65104 z m 0.46875,-4.11458 h 2.30729 q 0.61979,0 1.0625,-0.46354 0.44792,-0.46355 0.44792,-1.1198 0,-0.66666 -0.44792,-1.13541 -0.44792,-0.47396 -1.07813,-0.47396 h -2.29166 z" />
      <path
         id="path1761"
         style="font-style:normal;font-variant:normal;font-weight:normal;font-stretch:normal;font-size:10.66666698px;font-family:Sawasdee;-inkscape-font-specification:Sawasdee;letter-spacing:11.06999969px;word-spacing:5.57999992px;fill:#ffffff"
         d="m 168.0043,184.83151 v 0.46875 h -3.72917 v 3.8125 h 4.03125 v 0.46875 h -4.5 v -7.77604 h 4.52083 v 0.46875 h -4.05208 v 2.55729 z" />
      <path
         id="path1763"
         style="font-style:normal;font-variant:normal;font-weight:normal;font-stretch:normal;font-size:10.66666698px;font-family:Sawasdee;-inkscape-font-specification:Sawasdee;letter-spacing:11.06999969px;word-spacing:5.57999992px;fill:#ffffff"
         d="m 184.517,181.80547 v 0.46875 h -2.01562 v 7.30729 h -0.46875 v -7.30729 h -2.02083 v -0.46875 z" />
      <path
         id="path1765"
         style="font-style:normal;font-variant:normal;font-weight:normal;font-stretch:normal;font-size:10.66666698px;font-family:Sawasdee;-inkscape-font-specification:Sawasdee;letter-spacing:11.06999969px;word-spacing:5.57999992px;fill:#ffffff"
         d="m 200.9568,184.83151 v 0.46875 h -3.72917 v 3.8125 h 4.03125 v 0.46875 h -4.5 v -7.77604 h 4.52083 v 0.46875 h -4.05208 v 2.55729 z" />
      <path
         id="path1767"
         style="font-style:normal;font-variant:normal;font-weight:normal;font-stretch:normal;font-size:10.66666698px;font-family:Sawasdee;-inkscape-font-specification:Sawasdee;letter-spacing:11.06999969px;word-spacing:5.57999992px;fill:#ffffff"
         d="m 234.45284,189.11276 h 1.09375 q 0.95312,0 1.75,-0.44792 0.80208,-0.44791 1.26562,-1.23437 0.46875,-0.78646 0.46875,-1.72917 0,-0.95312 -0.46875,-1.73958 -0.46354,-0.79167 -1.26562,-1.23958 -0.79688,-0.44792 -1.75,-0.44792 h -1.09375 z m -0.46875,0.46875 v -7.77604 h 1.5625 q 0.80208,0 1.53125,0.30208 0.72916,0.30209 1.26041,0.82292 0.53125,0.51562 0.84375,1.23958 0.3125,0.72396 0.3125,1.53125 0,1.07292 -0.53125,1.96875 -0.53125,0.89063 -1.4375,1.40104 -0.90625,0.51042 -1.97916,0.51042 z" />
      <path
         id="path1769"
         style="font-style:normal;font-variant:normal;font-weight:normal;font-stretch:normal;font-size:10.66666698px;font-family:Sawasdee;-inkscape-font-specification:Sawasdee;letter-spacing:11.06999969px;word-spacing:5.57999992px;fill:#ffffff"
         d="m 256.26242,184.83151 v 0.46875 h -3.72917 v 3.8125 h 4.03125 v 0.46875 h -4.5 v -7.77604 h 4.52083 v 0.46875 h -4.05208 v 2.55729 z" />
      <path
         id="path1771"
         style="font-style:normal;font-variant:normal;font-weight:normal;font-stretch:normal;font-size:10.66666698px;font-family:Sawasdee;-inkscape-font-specification:Sawasdee;letter-spacing:11.06999969px;word-spacing:5.57999992px;fill:#ffffff"
         d="m 275.33764,187.77943 0.375,0.25521 q -0.54167,0.74479 -1.375,1.17708 -0.83334,0.42708 -1.79688,0.42708 -0.80208,0 -1.53125,-0.3125 -0.72917,-0.3125 -1.25521,-0.84375 -0.52604,-0.53125 -0.83854,-1.26562 -0.3125,-0.73438 -0.3125,-1.54167 0,-0.80729 0.3125,-1.54167 0.3125,-0.73437 0.83854,-1.26562 0.52604,-0.53125 1.25521,-0.84375 0.72917,-0.3125 1.53125,-0.3125 0.95833,0 1.79167,0.4375 0.83333,0.43229 1.38021,1.18229 l -0.375,0.27604 q -0.48438,-0.65104 -1.21875,-1.02604 -0.72917,-0.38021 -1.57813,-0.38021 -0.94792,0 -1.75,0.46875 -0.79687,0.46875 -1.26042,1.27604 -0.46354,0.80209 -0.46354,1.75521 0,0.70834 0.27084,1.35417 0.27604,0.64583 0.73958,1.11458 0.46354,0.46875 1.10937,0.75 0.64584,0.27604 1.35417,0.27604 0.84896,0 1.57813,-0.3802 0.73437,-0.38021 1.21875,-1.03646 z" />
      <path
         id="path1773"
         style="font-style:normal;font-variant:normal;font-weight:normal;font-stretch:normal;font-size:10.66666698px;font-family:Sawasdee;-inkscape-font-specification:Sawasdee;letter-spacing:11.06999969px;word-spacing:5.57999992px;fill:#ffffff"
         d="m 290.4545,182.05026 q 0.72917,-0.3125 1.53125,-0.3125 0.80209,0 1.53125,0.3125 0.73438,0.3125 1.26042,0.84375 0.53125,0.53125 0.84375,1.26563 0.3125,0.73437 0.3125,1.54166 0,0.80729 -0.3125,1.54167 -0.3125,0.72917 -0.84375,1.26042 -0.52604,0.53125 -1.26042,0.84375 -0.72916,0.3125 -1.53125,0.3125 -0.80208,0 -1.53125,-0.3125 -0.72916,-0.3125 -1.2552,-0.84375 -0.52605,-0.53125 -0.83855,-1.26042 -0.3125,-0.73438 -0.3125,-1.54167 0,-0.80729 0.3125,-1.54166 0.3125,-0.73438 0.83855,-1.26563 0.52604,-0.53125 1.2552,-0.84375 z m -1.9427,3.65104 q 0,0.70834 0.27083,1.35417 0.27604,0.64583 0.73958,1.11458 0.46354,0.46875 1.10938,0.75 0.64583,0.27604 1.35416,0.27604 0.71355,0 1.35938,-0.27604 0.64583,-0.28125 1.10937,-0.75 0.46355,-0.46875 0.73959,-1.11458 0.27604,-0.64583 0.27604,-1.35417 0,-0.95312 -0.46354,-1.75521 -0.46354,-0.80729 -1.27084,-1.27604 -0.80208,-0.46875 -1.75,-0.46875 -0.94791,0 -1.75,0.46875 -0.79687,0.46875 -1.26041,1.27604 -0.46354,0.80209 -0.46354,1.75521 z" />
      <path
         id="path1775"
         style="font-style:normal;font-variant:normal;font-weight:normal;font-stretch:normal;font-size:10.66666698px;font-family:Sawasdee;-inkscape-font-specification:Sawasdee;letter-spacing:11.06999969px;word-spacing:5.57999992px;fill:#ffffff"
         d="m 308.50368,189.58151 v -7.77604 h 2.76041 q 0.83855,0 1.42188,0.60937 0.58333,0.60417 0.58333,1.46875 0,0.73438 -0.45833,1.3073 -0.45313,0.5677 -1.13542,0.70833 l 2.01563,3.68229 h -0.52604 l -2,-3.65104 h -2.19271 v 3.65104 z m 0.46875,-4.11458 h 2.30729 q 0.61979,0 1.0625,-0.46354 0.44792,-0.46355 0.44792,-1.1198 0,-0.66666 -0.44792,-1.13541 -0.44792,-0.47396 -1.07813,-0.47396 h -2.29166 z" />
    </g>
  </g>
</svg>
