<?xml version="1.0" encoding="UTF-8" standalone="no"?>
<svg
   xmlns:dc="http://purl.org/dc/elements/1.1/"
   xmlns:cc="http://creativecommons.org/ns#"
   xmlns:rdf="http://www.w3.org/1999/02/22-rdf-syntax-ns#"
   xmlns:svg="http://www.w3.org/2000/svg"
   xmlns="http://www.w3.org/2000/svg"
   id="svg1520"
   version="1.1"
   viewBox="0 0 142.01846 14.814188"
   height="14.814188mm"
   width="142.01846mm">
  <defs
     id="defs1514" />
  <metadata
     id="metadata1517">
    <rdf:RDF>
      <cc:Work
         rdf:about="">
        <dc:format>image/svg+xml</dc:format>
        <dc:type
           rdf:resource="http://purl.org/dc/dcmitype/StillImage" />
        <dc:title></dc:title>
      </cc:Work>
    </rdf:RDF>
  </metadata>
  <g
     transform="translate(-26.654883,-104.41453)"
     id="layer1">
    <g
       id="g7132"
       transform="matrix(0.41353288,0,0,0.46076298,1.0121393,90.193295)">
      <path
         d="m 280.546,37.969 0.37,0.234 c -0.357,0.457 -0.814,0.813 -1.362,1.078 -0.553,0.262 -1.145,0.391 -1.785,0.391 -0.526,0 -1.036,-0.094 -1.519,-0.285 -0.479,-0.192 -0.896,-0.449 -1.245,-0.774 -0.348,-0.324 -0.622,-0.711 -0.831,-1.156 -0.204,-0.449 -0.309,-0.918 -0.309,-1.41 0,-0.496 0.105,-0.965 0.309,-1.414 0.209,-0.445 0.483,-0.832 0.831,-1.156 0.349,-0.325 0.766,-0.582 1.245,-0.774 0.483,-0.191 0.993,-0.285 1.519,-0.285 0.636,0 1.228,0.133 1.78,0.402 0.549,0.262 1.006,0.621 1.367,1.082 l -0.37,0.25 c -0.322,-0.394 -0.722,-0.711 -1.21,-0.937 -0.483,-0.235 -1.005,-0.348 -1.567,-0.348 -0.627,0 -1.205,0.141 -1.732,0.43 -0.527,0.285 -0.945,0.672 -1.254,1.164 -0.304,0.492 -0.457,1.027 -0.457,1.609 0,0.43 0.088,0.844 0.266,1.239 0.183,0.394 0.431,0.734 0.736,1.019 0.304,0.285 0.674,0.516 1.101,0.688 0.426,0.168 0.875,0.25 1.34,0.25 0.562,0 1.084,-0.114 1.567,-0.348 0.488,-0.23 0.888,-0.547 1.21,-0.949 z"
         style="fill:#000000;fill-opacity:1;fill-rule:nonzero;stroke:#000000;stroke-width:0.59842902;stroke-linecap:butt;stroke-linejoin:round;stroke-miterlimit:4;stroke-dasharray:none;stroke-opacity:1"
         id="path7134" />
    </g>
    <g
       id="g7136"
       transform="matrix(0.41353288,0,0,0.46076298,1.0121393,90.193295)">
      <path
         d="m 295.54,32.727 c 0.479,-0.188 0.988,-0.286 1.519,-0.286 0.527,0 1.036,0.098 1.519,0.286 0.483,0.191 0.901,0.449 1.249,0.773 0.348,0.324 0.631,0.711 0.836,1.156 0.209,0.449 0.309,0.922 0.309,1.414 0,0.492 -0.1,0.961 -0.309,1.41 -0.205,0.446 -0.488,0.829 -0.836,1.153 -0.348,0.324 -0.766,0.582 -1.249,0.773 -0.483,0.188 -0.992,0.285 -1.519,0.285 -0.531,0 -1.04,-0.097 -1.519,-0.285 -0.483,-0.191 -0.897,-0.449 -1.245,-0.773 -0.348,-0.324 -0.627,-0.707 -0.831,-1.153 -0.209,-0.449 -0.313,-0.918 -0.313,-1.41 0,-0.492 0.104,-0.965 0.313,-1.414 0.204,-0.445 0.483,-0.832 0.831,-1.156 0.348,-0.324 0.762,-0.582 1.245,-0.773 z m -1.928,3.343 c 0,0.43 0.091,0.844 0.27,1.239 0.183,0.394 0.426,0.734 0.731,1.019 0.309,0.285 0.675,0.516 1.101,0.688 0.427,0.168 0.875,0.25 1.345,0.25 0.47,0 0.918,-0.082 1.345,-0.25 0.426,-0.172 0.796,-0.403 1.101,-0.688 0.309,-0.285 0.553,-0.625 0.736,-1.019 0.182,-0.395 0.274,-0.809 0.274,-1.239 0,-0.582 -0.157,-1.117 -0.462,-1.609 -0.304,-0.492 -0.726,-0.879 -1.262,-1.164 -0.526,-0.289 -1.105,-0.43 -1.732,-0.43 -0.627,0 -1.206,0.141 -1.737,0.43 -0.526,0.285 -0.944,0.672 -1.249,1.164 -0.309,0.492 -0.461,1.027 -0.461,1.609 z"
         style="fill:#000000;fill-opacity:1;fill-rule:nonzero;stroke:#000000;stroke-width:0.59842902;stroke-linecap:butt;stroke-linejoin:round;stroke-miterlimit:4;stroke-dasharray:none;stroke-opacity:1"
         id="path7138" />
    </g>
    <g
       id="g7140"
       transform="matrix(0.41353288,0,0,0.46076298,1.0121393,90.193295)">
      <path
         d="m 313.441,39.621 v -7.203 l 6.49,6.238 v -6.152 h 0.457 v 7.195 l -6.481,-6.226 v 6.148 z"
         style="fill:#000000;fill-opacity:1;fill-rule:nonzero;stroke:#000000;stroke-width:0.59842902;stroke-linecap:butt;stroke-linejoin:round;stroke-miterlimit:4;stroke-dasharray:none;stroke-opacity:1"
         id="path7142" />
    </g>
    <g
       id="g7144"
       transform="matrix(0.41353288,0,0,0.46076298,1.0121393,90.193295)">
      <path
         d="m 337.941,37.969 0.374,0.234 c -0.361,0.457 -0.814,0.813 -1.366,1.078 -0.549,0.262 -1.145,0.391 -1.781,0.391 -0.531,0 -1.035,-0.094 -1.519,-0.285 -0.483,-0.192 -0.896,-0.449 -1.244,-0.774 -0.348,-0.324 -0.627,-0.711 -0.832,-1.156 -0.209,-0.449 -0.309,-0.918 -0.309,-1.41 0,-0.496 0.1,-0.965 0.309,-1.414 0.205,-0.445 0.484,-0.832 0.832,-1.156 0.348,-0.325 0.761,-0.582 1.244,-0.774 0.484,-0.191 0.988,-0.285 1.519,-0.285 0.632,0 1.228,0.133 1.776,0.402 0.553,0.262 1.01,0.621 1.371,1.082 l -0.374,0.25 c -0.318,-0.394 -0.723,-0.711 -1.206,-0.937 -0.483,-0.235 -1.005,-0.348 -1.567,-0.348 -0.626,0 -1.205,0.141 -1.736,0.43 -0.527,0.285 -0.945,0.672 -1.249,1.164 -0.309,0.492 -0.462,1.027 -0.462,1.609 0,0.43 0.092,0.844 0.27,1.239 0.183,0.394 0.427,0.734 0.731,1.019 0.309,0.285 0.675,0.516 1.102,0.688 0.426,0.168 0.874,0.25 1.344,0.25 0.562,0 1.084,-0.114 1.567,-0.348 0.483,-0.23 0.888,-0.547 1.206,-0.949 z"
         style="fill:#000000;fill-opacity:1;fill-rule:nonzero;stroke:#000000;stroke-width:0.59842902;stroke-linecap:butt;stroke-linejoin:round;stroke-miterlimit:4;stroke-dasharray:none;stroke-opacity:1"
         id="path7146" />
    </g>
    <g
       id="g7148"
       transform="matrix(0.41353288,0,0,0.46076298,1.0121393,90.193295)">
      <path
         d="m 350.776,39.621 v -7.117 h 2.738 c 0.553,0 1.023,0.187 1.41,0.558 0.387,0.368 0.579,0.817 0.579,1.344 0,0.449 -0.153,0.848 -0.453,1.196 -0.3,0.347 -0.679,0.562 -1.127,0.648 l 1.998,3.371 h -0.523 l -1.98,-3.344 h -2.176 v 3.344 z m 0.466,-3.766 h 2.289 c 0.409,0 0.762,-0.14 1.053,-0.425 0.296,-0.282 0.444,-0.625 0.444,-1.024 0,-0.406 -0.148,-0.754 -0.444,-1.039 -0.296,-0.289 -0.652,-0.433 -1.07,-0.433 h -2.272 z"
         style="fill:#000000;fill-opacity:1;fill-rule:nonzero;stroke:#000000;stroke-width:0.59842902;stroke-linecap:butt;stroke-linejoin:round;stroke-miterlimit:4;stroke-dasharray:none;stroke-opacity:1"
         id="path7150" />
    </g>
    <g
       id="g7152"
       transform="matrix(0.41353288,0,0,0.46076298,1.0121393,90.193295)">
      <path
         d="m 372.133,35.273 v 0.43 h -3.699 v 3.488 h 4 v 0.43 h -4.462 v -7.117 h 4.483 v 0.43 h -4.021 v 2.339 z"
         style="fill:#000000;fill-opacity:1;fill-rule:nonzero;stroke:#000000;stroke-width:0.59842902;stroke-linecap:butt;stroke-linejoin:round;stroke-miterlimit:4;stroke-dasharray:none;stroke-opacity:1"
         id="path7154" />
    </g>
    <g
       id="g7156"
       transform="matrix(0.41353288,0,0,0.46076298,1.0121393,90.193295)">
      <path
         d="m 388.511,32.504 v 0.43 h -1.997 v 6.687 h -0.466 v -6.687 h -2.002 v -0.43 z"
         style="fill:#000000;fill-opacity:1;fill-rule:nonzero;stroke:#000000;stroke-width:0.59842902;stroke-linecap:butt;stroke-linejoin:round;stroke-miterlimit:4;stroke-dasharray:none;stroke-opacity:1"
         id="path7158" />
    </g>
    <g
       id="g7160"
       transform="matrix(0.41353288,0,0,0.46076298,1.0121393,90.193295)">
      <path
         d="m 404.82,35.273 v 0.43 h -3.7 v 3.488 h 3.996 v 0.43 h -4.462 v -7.117 h 4.483 v 0.43 h -4.017 v 2.339 z"
         style="fill:#000000;fill-opacity:1;fill-rule:nonzero;stroke:#000000;stroke-width:0.59842902;stroke-linecap:butt;stroke-linejoin:round;stroke-miterlimit:4;stroke-dasharray:none;stroke-opacity:1"
         id="path7162" />
    </g>
    <g
       id="g7164"
       transform="matrix(0.41353288,0,0,0.46076298,1.0121393,90.193295)">
      <path
         d="m 274.235,60.586 h 1.088 c 0.627,0 1.206,-0.137 1.732,-0.41 0.531,-0.274 0.949,-0.653 1.258,-1.129 0.309,-0.481 0.466,-1.008 0.466,-1.582 0,-0.582 -0.157,-1.113 -0.466,-1.594 -0.309,-0.484 -0.727,-0.859 -1.258,-1.133 -0.526,-0.273 -1.105,-0.41 -1.732,-0.41 h -1.088 z m -0.466,0.43 v -7.118 h 1.554 c 0.527,0 1.036,0.094 1.515,0.278 0.483,0.183 0.901,0.433 1.253,0.754 0.348,0.312 0.631,0.691 0.836,1.132 0.205,0.442 0.309,0.911 0.309,1.403 0,0.652 -0.174,1.254 -0.527,1.801 -0.352,0.543 -0.827,0.968 -1.423,1.281 -0.601,0.312 -1.253,0.469 -1.963,0.469 z"
         style="fill:#000000;fill-opacity:1;fill-rule:nonzero;stroke:#000000;stroke-width:0.59842902;stroke-linecap:butt;stroke-linejoin:round;stroke-miterlimit:4;stroke-dasharray:none;stroke-opacity:1"
         id="path7166" />
    </g>
    <g
       id="g7168"
       transform="matrix(0.41353288,0,0,0.46076298,1.0121393,90.193295)">
      <path
         d="m 295.866,56.668 v 0.43 h -3.695 v 3.488 h 3.996 v 0.43 h -4.461 v -7.118 h 4.483 v 0.43 h -4.018 v 2.34 z"
         style="fill:#000000;fill-opacity:1;fill-rule:nonzero;stroke:#000000;stroke-width:0.59842902;stroke-linecap:butt;stroke-linejoin:round;stroke-miterlimit:4;stroke-dasharray:none;stroke-opacity:1"
         id="path7170" />
    </g>
    <g
       id="g7172"
       transform="matrix(0.41353288,0,0,0.46076298,1.0121393,90.193295)">
      <path
         d="m 314.786,59.363 0.375,0.235 c -0.362,0.453 -0.814,0.812 -1.367,1.078 -0.548,0.262 -1.145,0.39 -1.78,0.39 -0.531,0 -1.036,-0.093 -1.519,-0.285 -0.483,-0.191 -0.897,-0.449 -1.245,-0.773 -0.348,-0.324 -0.627,-0.711 -0.831,-1.156 -0.209,-0.45 -0.309,-0.918 -0.309,-1.414 0,-0.493 0.1,-0.961 0.309,-1.411 0.204,-0.445 0.483,-0.832 0.831,-1.156 0.348,-0.324 0.762,-0.582 1.245,-0.773 0.483,-0.192 0.988,-0.286 1.519,-0.286 0.635,0 1.227,0.133 1.776,0.399 0.552,0.266 1.009,0.625 1.371,1.082 l -0.375,0.254 c -0.317,-0.399 -0.722,-0.711 -1.205,-0.938 -0.483,-0.234 -1.006,-0.347 -1.567,-0.347 -0.627,0 -1.206,0.14 -1.737,0.429 -0.526,0.286 -0.944,0.672 -1.249,1.164 -0.309,0.493 -0.461,1.028 -0.461,1.61 0,0.43 0.091,0.844 0.27,1.238 0.182,0.395 0.426,0.735 0.735,1.02 0.305,0.285 0.67,0.515 1.097,0.687 0.426,0.168 0.875,0.25 1.345,0.25 0.561,0 1.084,-0.113 1.567,-0.348 0.483,-0.23 0.888,-0.546 1.205,-0.949 z"
         style="fill:#000000;fill-opacity:1;fill-rule:nonzero;stroke:#000000;stroke-width:0.59842902;stroke-linecap:butt;stroke-linejoin:round;stroke-miterlimit:4;stroke-dasharray:none;stroke-opacity:1"
         id="path7174" />
    </g>
    <g
       id="g7176"
       transform="matrix(0.41353288,0,0,0.46076298,1.0121393,90.193295)">
      <path
         d="m 329.78,54.121 c 0.483,-0.187 0.988,-0.285 1.519,-0.285 0.531,0 1.036,0.098 1.519,0.285 0.488,0.191 0.901,0.449 1.249,0.774 0.353,0.324 0.631,0.71 0.84,1.156 0.205,0.449 0.309,0.922 0.309,1.414 0,0.492 -0.104,0.961 -0.309,1.41 -0.209,0.445 -0.487,0.828 -0.84,1.152 -0.348,0.325 -0.761,0.582 -1.249,0.774 -0.483,0.187 -0.988,0.285 -1.519,0.285 -0.531,0 -1.036,-0.098 -1.519,-0.285 -0.483,-0.192 -0.896,-0.449 -1.245,-0.774 -0.348,-0.324 -0.622,-0.707 -0.831,-1.152 -0.204,-0.449 -0.309,-0.918 -0.309,-1.41 0,-0.492 0.105,-0.965 0.309,-1.414 0.209,-0.446 0.483,-0.832 0.831,-1.156 0.349,-0.325 0.762,-0.583 1.245,-0.774 z m -1.928,3.344 c 0,0.43 0.092,0.844 0.27,1.238 0.183,0.395 0.426,0.735 0.736,1.02 0.304,0.285 0.67,0.515 1.101,0.687 0.426,0.168 0.875,0.25 1.34,0.25 0.475,0 0.923,-0.082 1.349,-0.25 0.427,-0.172 0.793,-0.402 1.102,-0.687 0.304,-0.285 0.548,-0.625 0.731,-1.02 0.183,-0.394 0.274,-0.808 0.274,-1.238 0,-0.582 -0.152,-1.117 -0.457,-1.61 -0.309,-0.492 -0.727,-0.878 -1.262,-1.164 -0.531,-0.289 -1.11,-0.429 -1.737,-0.429 -0.627,0 -1.205,0.14 -1.736,0.429 -0.527,0.286 -0.941,0.672 -1.25,1.164 -0.304,0.493 -0.461,1.028 -0.461,1.61 z"
         style="fill:#000000;fill-opacity:1;fill-rule:nonzero;stroke:#000000;stroke-width:0.59842902;stroke-linecap:butt;stroke-linejoin:round;stroke-miterlimit:4;stroke-dasharray:none;stroke-opacity:1"
         id="path7178" />
    </g>
    <g
       id="g7180"
       transform="matrix(0.41353288,0,0,0.46076298,1.0121393,90.193295)">
      <path
         d="m 347.682,61.016 v -7.118 h 2.737 c 0.557,0 1.027,0.188 1.41,0.559 0.388,0.367 0.579,0.816 0.579,1.344 0,0.445 -0.148,0.847 -0.452,1.195 -0.301,0.348 -0.675,0.563 -1.128,0.649 l 2.002,3.371 h -0.522 l -1.985,-3.344 h -2.176 v 3.344 z m 0.465,-3.766 h 2.29 c 0.409,0 0.761,-0.145 1.053,-0.426 0.296,-0.281 0.444,-0.625 0.444,-1.023 0,-0.406 -0.148,-0.754 -0.444,-1.039 -0.296,-0.289 -0.653,-0.434 -1.071,-0.434 h -2.272 z"
         style="fill:#000000;fill-opacity:1;fill-rule:nonzero;stroke:#000000;stroke-width:0.59842902;stroke-linecap:butt;stroke-linejoin:round;stroke-miterlimit:4;stroke-dasharray:none;stroke-opacity:1"
         id="path7182" />
    </g>
    <g
       id="g7184"
       transform="matrix(0.41353338,0,0,0.46076298,1.0121393,90.193295)">
      <path
         d="m 79.396,61.02 c -7.939,0.054 -15.973,-6.27 -15.359,-14.942 0.518,-7.293 7.29,-12.945 15.229,-13.086 8.865,-0.156 15.699,5.985 15.912,13.231 0.244,8.191 -6.542,14.734 -15.782,14.797 z"
         style="fill:none;stroke:#000000;stroke-width:3.99120903;stroke-linecap:butt;stroke-linejoin:miter;stroke-miterlimit:4;stroke-dasharray:none;stroke-opacity:1"
         id="path7186" />
    </g>
    <g
       id="g7188"
       transform="matrix(0.41353338,0,0,0.46076298,1.0121393,90.193295)">
      <path
         d="m 116.774,60.891 c -7.938,0.054 -15.973,-6.274 -15.359,-14.942 0.518,-7.293 7.29,-12.949 15.229,-13.086 8.866,-0.156 15.699,5.985 15.917,13.231 0.239,8.187 -6.546,14.73 -15.787,14.797 z"
         style="fill:none;stroke:#000000;stroke-width:3.99120903;stroke-linecap:butt;stroke-linejoin:miter;stroke-miterlimit:4;stroke-dasharray:none;stroke-opacity:1"
         id="path7190" />
    </g>
    <g
       id="g7192"
       transform="matrix(0.41353338,0,0,0.46076298,1.0121393,90.193295)">
      <path
         d="m 176.211,33.199 0.13,12.008 c 0.227,20.469 31.307,20.375 31.485,0.195 l 0.109,-12.304"
         style="fill:none;stroke:#000000;stroke-width:3.99120903;stroke-linecap:round;stroke-linejoin:round;stroke-miterlimit:4;stroke-dasharray:none;stroke-opacity:1"
         id="path7194" />
    </g>
    <g
       id="g7196"
       transform="matrix(0.41353338,0,0,0.46076298,1.0121393,90.193295)">
      <path
         d="m 119.987,46.91 c 0.082,1.301 -1.028,2.418 -2.477,2.492 -1.449,0.075 -2.694,-0.918 -2.781,-2.222 -0.083,-1.301 1.023,-2.418 2.472,-2.496 1.454,-0.079 2.698,0.914 2.786,2.214 l -2.629,0.145 z"
         style="fill:#008000;fill-opacity:1;fill-rule:nonzero;stroke:#000000;stroke-width:2.81592107;stroke-linecap:round;stroke-linejoin:round;stroke-miterlimit:4;stroke-dasharray:none;stroke-opacity:1"
         id="path7198" />
    </g>
    <g
       id="g7200"
       transform="matrix(0.41353338,0,0,0.46076298,1.0121393,90.193295)">
      <path
         d="m 215.352,60.574 0.13,-12.008 c 0.227,-20.468 31.307,-20.375 31.485,-0.191 l 0.109,12.301"
         style="fill:none;stroke:#000000;stroke-width:3.99120903;stroke-linecap:round;stroke-linejoin:round;stroke-miterlimit:4;stroke-dasharray:none;stroke-opacity:1"
         id="path7202" />
    </g>
    <g
       id="g7204"
       transform="matrix(0.41353338,0,0,0.46076298,1.0121393,90.193295)">
      <path
         d="m 139.076,60.918 -0.17,-12.82 c -0.217,-16.66 22.668,-19.934 29.879,-7.575"
         style="fill:none;stroke:#000000;stroke-width:3.99120903;stroke-linecap:round;stroke-linejoin:round;stroke-miterlimit:4;stroke-dasharray:none;stroke-opacity:1"
         id="path7206" />
    </g>
  </g>
</svg>
